HIERARCHY
ROOT Hips
{
	OFFSET 0.00000 0.00000 0.00000
	CHANNELS 6 Xposition Yposition Zposition Zrotation Yrotation Xrotation 
	JOINT LHipJoint
	{
		OFFSET 0 0 0
		CHANNELS 3 Zrotation Yrotation Xrotation
		JOINT LeftHip
		{
			OFFSET 1.64549 -1.70879 0.84566
			CHANNELS 3 Zrotation Yrotation Xrotation
			JOINT LeftKnee
			{
				OFFSET 2.24963 -6.18082 0.00000
				CHANNELS 3 Zrotation Yrotation Xrotation
				JOINT LeftAnkle
				{
					OFFSET 2.71775 -7.46697 0.00000
					CHANNELS 3 Zrotation Yrotation Xrotation
					JOINT LeftToe
					{
						OFFSET 0.18768 -0.51564 2.24737
						CHANNELS 3 Zrotation Yrotation Xrotation
						End Site
						{
							OFFSET 0.00000 -0.00000 1.15935
						}
					}
				}
			}
		}
	}
	JOINT RHipJoint
	{
		OFFSET 0 0 0
		CHANNELS 3 Zrotation Yrotation Xrotation
		JOINT RightHip
		{
			OFFSET -1.58830 -1.70879 0.84566
			CHANNELS 3 Zrotation Yrotation Xrotation
			JOINT RightKnee
			{
				OFFSET -2.25006 -6.18201 0.00000
				CHANNELS 3 Zrotation Yrotation Xrotation
				JOINT RightAnkle
				{
					OFFSET -2.72829 -7.49593 0.00000
					CHANNELS 3 Zrotation Yrotation Xrotation
					JOINT RightToe
					{
						OFFSET -0.21541 -0.59185 2.10643
						CHANNELS 3 Zrotation Yrotation Xrotation
						End Site
						{
							OFFSET -0.00000 -0.00000 1.09838
						}
					}
				}
			}
		}
	}
	JOINT lowerback
	{
		OFFSET 0 0 0
		CHANNELS 3 Zrotation Yrotation Xrotation
		JOINT Chest
		{
			OFFSET 0.03142 2.10496 -0.11038
			CHANNELS 3 Zrotation Yrotation Xrotation
			JOINT Chest2
			{
				OFFSET -0.01863 2.10897 -0.06956
				CHANNELS 3 Zrotation Yrotation Xrotation
				JOINT lowerneck
				{
					OFFSET 0 0 0
					CHANNELS 3 Zrotation Yrotation Xrotation
					JOINT Neck
					{
						OFFSET -0.02267 1.73238 0.00451
						CHANNELS 3 Zrotation Yrotation Xrotation
						JOINT Head
						{
							OFFSET -0.05808 1.54724 -0.61749
							CHANNELS 3 Zrotation Yrotation Xrotation
							End Site
							{
								OFFSET -0.01396 1.71468 -0.21082
							}
						}
					}
				}
				JOINT LeftCollar
				{
					OFFSET 0 0 0
					CHANNELS 3 Zrotation Yrotation Xrotation
					JOINT LeftShoulder
					{
						OFFSET 3.44898 0.50298 0.21920
CHANNELS 3 Zrotation Xrotation Yrotation
						JOINT LeftElbow
						{
OFFSET 0 -5.419170 -0.000000
CHANNELS 3 Zrotation Xrotation Yrotation
							JOINT LeftWrist
							{
OFFSET 0 -2.443730 0.000000
CHANNELS 3 Zrotation Xrotation Yrotation
								JOINT lhand
								{
									OFFSET 0 0 0
CHANNELS 3 Zrotation Xrotation Yrotation
									JOINT LFingers
									{
OFFSET 0 -0.727500 0.000000
CHANNELS 3 Zrotation Xrotation Yrotation
										End Site
										{
OFFSET 0 -0.586530 0.000000
										}
									}
								}
								JOINT LThumb
								{
OFFSET 0 0.000000 0.000000
CHANNELS 3 Zrotation Xrotation Yrotation
									End Site
									{
OFFSET 0 -0.595490 0.595490
									}
								}
							}
						}
					}
				}
				JOINT RightCollar
				{
					OFFSET 0 0 0
					CHANNELS 3 Zrotation Yrotation Xrotation
					JOINT RightShoulder
					{
						OFFSET -3.23015 0.55830 0.31051
CHANNELS 3 Zrotation Xrotation Yrotation
						JOINT RightElbow
						{
OFFSET 0 -5.589760 0.000140
CHANNELS 3 Zrotation Xrotation Yrotation
							JOINT RightWrist
							{
OFFSET 0 -2.480600 0.000000
CHANNELS 3 Zrotation Xrotation Yrotation
								JOINT rhand
								{
									OFFSET 0 0 0
CHANNELS 3 Zrotation Xrotation Yrotation
									JOINT RFingers
									{
OFFSET 0 -0.816010 0.000000
CHANNELS 3 Zrotation Xrotation Yrotation
										End Site
										{
OFFSET 0 -0.657890 0.000000
										}
									}
								}
								JOINT RThumb
								{
OFFSET 0 0.000000 0.000000
CHANNELS 3 Zrotation Xrotation Yrotation
									End Site
									{
OFFSET 0 -0.667930 0.667930
									}
								}
							}
						}
					}
				}
			}
		}
	}
}
MOTION
Frames: 8
Frame Time: 0.008333333333333333
4.413300 16.352400 27.629700 -4.692100 -48.504800 28.660800 0.000000 0.000000 0.000000 -21.600600 -14.053000 -49.718200 6.449000 14.849800 46.758200 4.364300 10.129500 -43.700500 0.437300 4.243200 11.762000 0.000000 0.000000 0.000000 31.854000 -9.765400 -37.147100 -8.873200 -16.725400 55.650600 -1.253100 -39.414300 33.070800 -3.969200 -12.119300 36.155500 -2.187800 1.116800 -16.022700 0.430800 1.589800 -6.953300 1.953100 0.761200 1.517900 -0.810500 -1.081200 -8.504000 4.743300 -4.872800 42.653200 1.387500 -1.945700 17.190800 -0.000000 0.000000 0.000000 9.056400 9.383400 -0.652500 12.736400 -20.899700 2.358400 -17.469600 0.886500 -20.871700 0.000000 0.000000 0.000000 -7.125000 0.000000 0.000000 -42.208500 46.258800 1.600100 -0.000000 0.000000 0.000000 -8.107100 9.446400 -111.901400 0.421900 0.730700 -0.002700 10.774800 132.240900 -9.531200 0.000000 0.000000 0.000000 7.125000 0.000000 -0.000000 26.149900 20.500500 17.194600
4.428036 16.355680 27.630795 -4.907026 -48.262909 28.635906 0.000000 0.000000 0.000000 -21.327015 -14.382251 -49.411395 6.436640 14.838587 46.710013 4.451378 9.848331 -43.930749 0.524070 4.631965 12.863090 0.000000 0.000000 0.000000 31.831969 -9.611087 -36.718713 -8.841428 -16.704601 55.540041 0.456397 -42.492059 28.749216 -5.000829 -13.382321 40.821379 -1.995051 0.972962 -15.992649 0.661138 1.361062 -7.025337 2.046142 0.646960 1.436295 -0.300550 -0.942480 -8.547001 3.882418 -4.404343 42.525077 0.975867 -1.778889 17.052544 0.000000 0.000000 0.000000 9.006914 9.529091 -1.438053 12.604189 -20.704547 2.311483 -18.387808 1.087973 -20.569645 0.000000 0.000000 0.000000 -7.125000 0.000000 0.000000 -42.718139 45.888410 1.151827 0.000000 0.000000 0.000000 -8.586280 9.245238 -111.408109 0.210367 0.364414 -0.000769 11.565095 132.291533 -9.759914 0.000000 0.000000 0.000000 7.125000 0.000000 0.000000 26.602599 20.261826 17.736902
4.448045 16.347162 27.634276 -4.490401 -48.594626 27.865717 0.000000 0.000000 0.000000 -21.700625 -14.719395 -48.697838 6.400862 14.805929 46.570219 4.636709 9.625177 -44.601808 0.650834 5.160179 14.365914 0.000000 0.000000 0.000000 31.117979 -9.252050 -36.127442 -8.862430 -16.718369 55.613306 1.037647 -43.685502 27.515101 -5.264069 -13.674985 41.951128 -2.242143 1.065775 -15.773869 0.615661 1.520664 -6.955682 2.160257 0.732912 1.380357 -0.277931 -0.979953 -9.024238 3.537360 -4.317059 42.600956 0.826287 -1.769590 17.199700 0.000000 0.000000 0.000000 9.079090 9.498562 -2.762875 12.468361 -20.503402 2.263720 -19.132487 1.473194 -20.222080 0.000000 0.000000 0.000000 -7.125000 0.000000 0.000000 -43.059440 45.507581 0.667962 0.000000 0.000000 0.000000 -8.928147 8.966868 -111.388633 -0.083968 -0.145473 -0.000095 12.444323 132.588384 -10.269634 0.000000 0.000000 0.000000 7.125000 0.000000 0.000000 27.051007 19.760933 18.470797
4.472097 16.342684 27.627726 -4.342981 -48.960044 27.621797 0.000000 0.000000 0.000000 -21.919675 -14.660778 -48.585924 6.380532 14.787237 46.490461 4.742672 9.286071 -44.883597 0.723084 5.433160 15.148374 0.000000 0.000000 0.000000 30.603583 -8.236351 -35.780948 -8.900721 -16.743427 55.746163 2.178386 -44.873261 24.246020 -5.916381 -14.334307 44.621532 -2.379185 1.192159 -15.760419 0.527334 1.708903 -6.954782 2.175246 0.828559 1.362190 -0.377512 -1.056727 -9.370125 3.617382 -4.420651 42.496578 0.860051 -1.807747 17.238465 0.000000 0.000000 0.000000 9.249454 9.361229 -3.795992 12.357140 -20.338093 2.224874 -20.081764 2.389303 -19.654711 0.000000 0.000000 0.000000 -7.125000 0.000000 0.000000 -43.404796 44.924512 -0.103079 0.000000 0.000000 0.000000 -9.086743 8.981056 -111.435689 0.004539 0.007838 0.000000 12.913492 133.124654 -10.188198 0.000000 0.000000 0.000000 7.125000 0.000000 0.000000 27.355161 19.813734 18.700811
4.487493 16.334358 27.618704 -4.357000 -49.145689 27.483885 0.000000 0.000000 0.000000 -21.994927 -14.521331 -48.546522 6.390518 14.796373 46.529438 4.783400 9.111985 -44.971862 0.749448 5.529690 15.425677 0.000000 0.000000 0.000000 30.583985 -7.762521 -35.635874 -8.893302 -16.738592 55.720454 0.328833 -42.158785 28.970235 -5.137208 -13.533844 41.406554 -2.550416 1.181472 -15.778516 0.655075 1.714398 -6.969141 2.407069 0.836472 1.345603 -0.540023 -1.063095 -9.509529 3.496252 -4.294606 42.249486 0.852481 -1.792188 17.123873 0.000000 0.000000 0.000000 9.179502 9.409417 -4.623715 12.275146 -20.215965 2.196430 -21.352557 3.183857 -19.121521 0.000000 0.000000 0.000000 -7.125000 0.000000 0.000000 -43.995337 44.323618 -0.929203 0.000000 0.000000 0.000000 -9.420778 9.044392 -111.249301 0.002609 0.004560 -0.000031 13.247611 133.653365 -10.491401 0.000000 0.000000 0.000000 7.125000 0.000000 0.000000 27.500508 19.522221 19.038445
4.493355 16.331148 27.624025 -4.672958 -49.044341 27.591985 0.000000 0.000000 0.000000 -21.863790 -14.432737 -48.462622 6.423967 14.826993 46.660494 4.787263 9.077578 -44.972380 0.768090 5.596310 15.617556 0.000000 0.000000 0.000000 30.729480 -7.729469 -35.387521 -8.840590 -16.704037 55.537182 -0.851734 -40.008620 31.926389 -4.530789 -12.834640 38.753189 -2.333565 1.202119 -15.926516 0.805383 1.702769 -7.081210 2.442606 0.828065 1.308069 -0.744866 -1.059719 -9.303105 3.410374 -4.165804 42.031902 0.872679 -1.785607 16.941342 0.000000 0.000000 0.000000 9.277395 9.694518 -6.133781 12.188075 -20.086078 2.166455 -22.641773 3.013722 -18.741038 0.000000 0.000000 0.000000 -7.125000 0.000000 0.000000 -44.671036 43.840677 -1.639911 0.000000 0.000000 0.000000 -9.945494 9.686393 -111.177035 0.254778 0.441198 -0.001118 13.365168 134.116336 -10.590726 0.000000 0.000000 0.000000 7.125000 0.000000 0.000000 27.552652 19.426280 19.154499
4.500418 16.340114 27.621807 -5.200006 -48.734679 27.898045 0.000000 0.000000 0.000000 -21.569267 -14.146075 -48.519918 6.449580 14.850294 46.760367 4.717822 8.930505 -44.617171 0.762775 5.577202 15.562530 0.000000 0.000000 0.000000 30.821758 -7.234074 -34.865658 -8.801105 -16.677962 55.399614 1.227732 -43.241717 26.410731 -5.614011 -14.040429 43.405980 -1.919193 1.342869 -15.991475 0.900611 1.824267 -7.155055 2.328857 0.882293 1.268969 -0.797517 -1.217837 -9.556128 3.275317 -4.311511 41.935287 0.795127 -1.861928 16.952351 0.000000 0.000000 0.000000 9.379244 9.641006 -6.970381 12.054635 -19.886553 2.120847 -24.139408 3.424998 -18.387333 0.000000 0.000000 0.000000 -7.125000 0.000000 0.000000 -45.484691 43.347413 -2.412933 0.000000 0.000000 0.000000 -10.291461 9.936923 -111.497221 0.343462 0.594824 -0.001852 13.932113 134.469806 -10.511362 0.000000 0.000000 0.000000 7.125000 0.000000 0.000000 27.912154 19.469660 19.448388
4.516581 16.338283 27.622458 -5.242052 -48.876126 27.821868 0.000000 0.000000 0.000000 -21.709652 -13.800696 -48.565180 6.453408 14.853789 46.775511 4.671568 8.964274 -44.439771 0.713770 5.398815 15.049628 0.000000 0.000000 0.000000 30.842181 -7.161817 -34.863263 -8.792511 -16.672329 55.369619 -0.644873 -40.263215 31.328722 -4.751505 -13.091557 39.723811 -1.857486 1.359811 -16.074848 0.870941 1.838507 -7.150273 2.267770 0.886342 1.320490 -0.706419 -1.246648 -9.758335 3.157786 -4.320952 41.863255 0.721162 -1.862802 16.956517 0.000000 0.000000 0.000000 9.414087 9.723448 -7.475960 12.012159 -19.822872 2.106406 -24.690875 3.380988 -18.370205 0.000000 0.000000 0.000000 -7.125000 0.000000 0.000000 -45.847066 43.254164 -2.584835 0.000000 0.000000 0.000000 -10.487781 9.326703 -111.199274 -0.062945 -0.108998 -0.000500 14.614722 134.689193 -10.512220 0.000000 0.000000 0.000000 7.125000 0.000000 0.000000 28.322573 19.431629 19.854083
